<svg width="37" height="36" viewBox="0 0 37 36" fill="none" xmlns="http://www.w3.org/2000/svg">
<path d="M18.1347 36C28.1502 36 36.2693 27.9411 36.2693 18C36.2693 8.05887 28.1502 0 18.1347 0C8.11916 0 0 8.05887 0 18C0 27.9411 8.11916 36 18.1347 36Z" fill="#2B2E36"/>
<path fill-rule="evenodd" clip-rule="evenodd" d="M16.1601 25.5314C15.5333 26.1562 14.517 26.1562 13.8902 25.5314L7.4701 19.1314C6.8433 18.5065 6.8433 17.4935 7.4701 16.8686L13.8902 10.4686C14.517 9.84379 15.5333 9.84379 16.1601 10.4686C16.7869 11.0935 16.7869 12.1065 16.1601 12.7314L12.4799 16.4L27.395 16.4C28.2814 16.4 29 17.1163 29 18C29 18.8837 28.2814 19.6 27.395 19.6C26.5085 19.6 12.4799 19.6 12.4799 19.6L16.1601 23.2686C16.7869 23.8935 16.7869 24.9065 16.1601 25.5314Z" fill="#D9D9D9"/>
</svg>
